<?xml version="1.0" encoding="UTF-8"?>
<svg version="1.1" xmlns="http://www.w3.org/2000/svg" width="1536" height="1024">
<path d="M0 0 C506.88 0 1013.76 0 1536 0 C1536 337.92 1536 675.84 1536 1024 C1029.12 1024 522.24 1024 0 1024 C0 686.08 0 348.16 0 0 Z " fill="#141825" transform="translate(0,0)"/>
<path d="M0 0 C1.00675781 0.40589355 2.01351563 0.81178711 3.05078125 1.22998047 C4.12714844 1.68775879 5.20351563 2.14553711 6.3125 2.6171875 C7.55156138 3.14159976 8.790658 3.66592874 10.02978516 4.19018555 C10.67683411 4.46486664 11.32388306 4.73954773 11.99053955 5.02255249 C27.30140983 11.51768567 42.70918492 17.75033424 58.17041016 23.87768555 C60.78223244 24.91362576 63.39143028 25.95590391 66 27 C66.5817609 39.38562364 67.02461556 51.76795816 67.2953043 64.16450596 C67.42531144 69.92312033 67.60114903 75.67233696 67.88598633 81.42553711 C69.73249356 119.71817285 69.73249356 119.71817285 63.70016479 127.46670532 C57.96783243 132.80842586 51.43456699 135.55968418 44.05471802 137.95596313 C39.99526581 139.34339652 36.63603467 141.36871748 33.05859375 143.69140625 C30.85239638 144.98319604 28.64538336 146.27359397 26.4375 147.5625 C25.22039674 148.27438903 24.00335754 148.9863876 22.78637695 149.69848633 C19.19208077 151.80098436 15.59618354 153.90073234 12 156 C10.93330078 156.62293945 9.86660156 157.24587891 8.76757812 157.88769531 C2.81980393 161.36067009 -3.12988031 164.83035721 -9.08056641 168.29833984 C-13.05087538 170.6125273 -17.02034852 172.9281462 -20.98974609 175.24389648 C-22.99127934 176.41153871 -24.99290646 177.57902005 -26.99462891 178.74633789 C-32.03326213 181.68478726 -37.07057901 184.62545285 -42.10546875 187.5703125 C-52.40032514 193.58884393 -62.71528801 199.56728474 -73.078125 205.46801758 C-80.65091654 209.78607456 -88.18098292 214.17546371 -95.70483398 218.578125 C-100.9561197 221.64868887 -106.21535572 224.70398093 -111.4921875 227.73046875 C-112.5764502 228.35276367 -113.66071289 228.97505859 -114.77783203 229.61621094 C-116.95485961 230.86475745 -119.13290886 232.11152434 -121.31201172 233.35644531 C-126.80382602 236.51144082 -132.22656351 239.74070088 -137.578125 243.12890625 C-138.62734131 243.78890625 -139.67655762 244.44890625 -140.75756836 245.12890625 C-142.75037786 246.39023856 -144.73355887 247.66695217 -146.70532227 248.9609375 C-147.59276123 249.52167969 -148.4802002 250.08242188 -149.39453125 250.66015625 C-150.16643799 251.16168213 -150.93834473 251.66320801 -151.73364258 252.17993164 C-154 253 -154 253 -156.37036133 252.36450195 C-157.23814209 251.91421631 -158.10592285 251.46393066 -159 251 C-160.03624512 250.47293457 -161.07249023 249.94586914 -162.14013672 249.40283203 C-163.32136735 248.77374394 -164.50114129 248.14191538 -165.6796875 247.5078125 C-166.64083466 246.99493431 -166.64083466 246.99493431 -167.62139893 246.47169495 C-168.99413634 245.73892987 -170.36627117 245.00503502 -171.737854 244.27011108 C-175.35895029 242.32987981 -178.98425981 240.39755276 -182.609375 238.46484375 C-183.33186432 238.0794191 -184.05435364 237.69399445 -184.79873657 237.29689026 C-190.88626808 234.05260769 -197.00042383 230.86127131 -203.125 227.6875 C-211.41862074 223.38344726 -219.63492143 218.95207931 -227.82519531 214.45483398 C-237.47778409 209.1651803 -247.23086712 204.07040055 -257 199 C-255.77371043 195.32113129 -254.95913034 195.14779207 -251.6171875 193.3984375 C-250.70493408 192.9130249 -249.79268066 192.4276123 -248.8527832 191.92749023 C-247.37878052 191.15900757 -247.37878052 191.15900757 -245.875 190.375 C-243.8437579 189.2927902 -241.81381102 188.20814588 -239.78515625 187.12109375 C-238.79016113 186.5885498 -237.79516602 186.05600586 -236.77001953 185.50732422 C-233.22415352 183.57781807 -229.75665601 181.54196751 -226.3125 179.4375 C-220.93434749 176.15950755 -215.51878646 172.95898681 -210.0625 169.8125 C-203.7577524 166.17571583 -197.4632447 162.52234613 -191.17993164 158.84863281 C-181.83643776 153.38575411 -172.4713771 147.96453618 -163.06811523 142.60522461 C-146.66967524 133.25643752 -130.33687342 123.79423382 -114.03979492 114.27001953 C-105.61514158 109.34993908 -97.16487216 104.47501544 -88.7109375 99.60546875 C-81.46048486 95.42650858 -74.22513764 91.22256044 -67 87 C-57.48754421 81.44116111 -47.95389666 75.92000158 -38.40551758 70.4230957 C-33.36661862 67.52193462 -28.33179138 64.61466695 -23.3125 61.6796875 C-22.44149658 61.17139404 -21.57049316 60.66310059 -20.6730957 60.1394043 C-19.07102007 59.20358819 -17.47047391 58.26514631 -15.87182617 57.32348633 C-12.32243376 55.25277136 -8.88866634 53.3828067 -5 52 C-8.0678843 51.83611365 -8.0678843 51.83611365 -11.0625 53.0625 C-14 54 -14 54 -16 53 C-16.7560114 49.40275682 -16.79060647 45.66338962 -17 42 C-17.06151245 40.97894165 -17.06151245 40.97894165 -17.12426758 39.93725586 C-17.39914007 35.20766205 -17.57507834 30.48294867 -17.6796875 25.74658203 C-17.72678487 24.07429841 -17.79535833 22.40248949 -17.88476562 20.73193359 C-18.60624524 6.94036616 -18.60624524 6.94036616 -14.70898438 2.23242188 C-9.2144416 -1.57836949 -6.27045977 -2.69672206 0 0 Z " fill="#F5F4F7" transform="translate(879,474)"/>
<path d="M0 0 C2.35400391 0.97705078 2.35400391 0.97705078 4.4765625 2.1953125 C5.70729492 2.88657227 5.70729492 2.88657227 6.96289062 3.59179688 C7.84138672 4.09775391 8.71988281 4.60371094 9.625 5.125 C11.58420031 6.22445554 13.54523595 7.32064509 15.5078125 8.4140625 C16.55356445 8.99704102 17.59931641 9.58001953 18.67675781 10.18066406 C24.55873458 13.40080004 30.53249228 16.4425109 36.5 19.5 C46.23752314 24.49821389 55.89267528 29.62342338 65.47900391 34.90722656 C73.21408463 39.15617683 81.06678789 43.13568464 89 47 C89 47.66 89 48.32 89 49 C87.52563477 50.15405273 87.52563477 50.15405273 85.44140625 51.43359375 C84.6716748 51.9119165 83.90194336 52.39023926 83.10888672 52.88305664 C82.2685791 53.39602295 81.42827148 53.90898926 80.5625 54.4375 C78.80546263 55.5277971 77.04896238 56.61896018 75.29296875 57.7109375 C74.40270996 58.26233398 73.51245117 58.81373047 72.59521484 59.38183594 C68.82652096 61.73168571 65.09822153 64.14146303 61.375 66.5625 C60.68140381 67.01238281 59.98780762 67.46226562 59.27319336 67.92578125 C57.18146764 69.28283904 55.09059964 70.6412082 53 72 C44.16043039 77.74530602 35.30146215 83.45288648 26.375 89.0625 C20.63254844 92.6718591 14.93867102 96.33689069 9.3125 100.125 C4.55629537 103.32715992 -0.24565966 106.42651669 -5.125 109.4375 C-12.92314238 114.25840425 -20.58761805 119.2800361 -28.25 124.3125 C-28.881409 124.72718536 -29.51281799 125.14187073 -30.1633606 125.56912231 C-32.68397892 127.22483403 -35.20446487 128.88074686 -37.72468567 130.5370636 C-42.99369566 133.99886708 -48.27449538 137.44227655 -53.5625 140.875 C-54.35237305 141.38780518 -55.14224609 141.90061035 -55.95605469 142.42895508 C-57.51894547 143.44334685 -59.08193242 144.45759046 -60.64501953 145.47167969 C-63.92552576 147.60064185 -67.2043674 149.73216071 -70.4831543 151.86376953 C-72.14727613 152.94563436 -73.81149968 154.02734276 -75.47583008 155.10888672 C-79.79261642 157.91413843 -84.10814325 160.72130305 -88.421875 163.53125 C-89.31390625 164.11197266 -90.2059375 164.69269531 -91.125 165.29101562 C-92.81809294 166.39328968 -94.51082826 167.49611333 -96.203125 168.59960938 C-101.10204073 171.78798703 -106.03133855 174.9214051 -111 178 C-110.83748025 178.72490222 -110.6749605 179.44980444 -110.50751591 180.19667339 C-110.03104779 182.82850372 -109.87675044 185.18463834 -109.87974548 187.85322571 C-109.87768349 189.27711357 -109.87768349 189.27711357 -109.87557983 190.72976685 C-109.88097275 192.27372635 -109.88097275 192.27372635 -109.88647461 193.84887695 C-109.88632858 194.94200699 -109.88618256 196.03513702 -109.8860321 197.16139221 C-109.88672812 200.77037549 -109.89450604 204.379307 -109.90234375 207.98828125 C-109.90420903 210.49220247 -109.90563242 212.99612406 -109.90663147 215.50004578 C-109.91005799 221.41435416 -109.91793753 227.32864598 -109.92798096 233.24294585 C-109.94026754 240.63917414 -109.94562861 248.03540474 -109.95117188 255.43164062 C-109.96189389 268.62110316 -109.97876746 281.81055041 -110 295 C-114.95226209 293.6385963 -119.39080549 291.99138726 -123.9375 289.625 C-125.35139985 288.90462858 -126.76547369 288.18459861 -128.1796875 287.46484375 C-129.33162598 286.87485596 -129.33162598 286.87485596 -130.50683594 286.27294922 C-135.17990943 283.88699101 -139.87109967 281.53716601 -144.5625 279.1875 C-145.57159424 278.68178467 -146.58068848 278.17606934 -147.62036133 277.6550293 C-157.5490229 272.69579013 -167.55649879 267.90623373 -177.58837891 263.15991211 C-180.40784564 261.80383938 -183.2028306 260.40140089 -186 259 C-186.75056895 239.51265051 -187.31320573 220.0282619 -187.6579895 200.52941418 C-187.82241755 191.47292322 -188.04604035 182.42544991 -188.4140625 173.37475586 C-188.73506111 165.47667309 -188.93988797 157.58511396 -189.01083183 149.68069059 C-189.05228696 145.4984471 -189.14790574 141.33484067 -189.38336182 137.15865135 C-190.71759455 112.53620581 -190.71759455 112.53620581 -184.5980072 105.35472918 C-177.65720008 98.82472799 -168.89321027 94.69602803 -160.26144588 90.87398803 C-152.77425575 87.55867825 -145.93579765 83.32663471 -139 79 C-137.5247519 78.11570815 -136.04761302 77.23453048 -134.56591797 76.36108398 C-133.96834686 76.00719101 -133.37077576 75.65329803 -132.75509644 75.28868103 C-131.88245651 74.77260033 -131.88245651 74.77260033 -130.9921875 74.24609375 C-129.6419036 73.44600318 -128.29164388 72.64587178 -126.94140625 71.84570312 C-124.9040847 70.63893668 -122.86656455 69.43250938 -120.82861328 68.22680664 C-112.80761092 63.48032818 -104.82330735 58.6858997 -96.89550781 53.78491211 C-92.93100909 51.34102929 -88.93685643 48.94874042 -84.9375 46.5625 C-76.151706 41.30760541 -67.40310255 35.99257322 -58.65988159 30.66729736 C-52.0063844 26.61684801 -45.33889321 22.59301868 -38.62890625 18.63671875 C-37.72645424 18.10430069 -37.72645424 18.10430069 -36.80577087 17.56112671 C-33.95098843 15.87815641 -31.0935702 14.20004905 -28.23217773 12.52832031 C-21.85388161 8.77924171 -15.80035282 4.82109395 -9.86914062 0.39086914 C-6.10060243 -1.43599965 -4.01559467 -1.0011804 0 0 Z " fill="#F3F2F4" transform="translate(772,260)"/>
<path d="M0 0 C0 34.98 0 69.96 0 106 C-3.63 107.98 -7.26 109.96 -11 112 C-21.25565305 117.67014116 -31.38016255 123.55053745 -41.48950195 129.4765625 C-50.08175459 134.49787737 -58.74787956 139.37938007 -67.45092773 144.20581055 C-72.83255614 147.19639656 -78.1507347 150.26268264 -83.41796875 153.45019531 C-88.34456474 156.4072709 -93.33265449 159.25884547 -98.3125 162.125 C-99.45187012 162.78169678 -100.59124023 163.43839355 -101.76513672 164.11499023 C-109.55570661 168.60338189 -117.36179847 173.06417391 -125.17407227 177.51464844 C-132.73340056 181.82933682 -140.24053063 186.23135341 -147.74926758 190.63330078 C-156.22083532 195.58250499 -164.77069591 200.38463096 -173.36425781 205.11865234 C-179.23157252 208.37035835 -184.90890138 211.79854745 -190.49804688 215.51025391 C-194.1899963 217.70856337 -197.87186738 218.84953681 -202 220 C-202 220.66 -202 221.32 -202 222 C-202.88042969 222.47050781 -203.76085937 222.94101562 -204.66796875 223.42578125 C-206.41013672 224.35970703 -206.41013672 224.35970703 -208.1875 225.3125 C-209.33605469 225.92738281 -210.48460937 226.54226563 -211.66796875 227.17578125 C-213.65896852 228.26581278 -215.6297576 229.39637117 -217.55078125 230.60546875 C-220 232 -220 232 -222.953125 232.9609375 C-226.29826261 234.1017152 -228.82107712 235.65889984 -231.75 237.625 C-236.79183673 241 -236.79183673 241 -239 241 C-239 241.66 -239 242.32 -239 243 C-239.66 243 -240.32 243 -241 243 C-241 208.35 -241 173.7 -241 138 C-232.75 133.38 -224.5 128.76 -216 124 C-209.82597255 120.37941256 -209.82597255 120.37941256 -203.6640625 116.73828125 C-197.6672372 113.19884193 -191.61183209 109.76107892 -185.5625 106.3125 C-176.36075479 101.06605483 -167.17069854 95.80063709 -158 90.5 C-148.42860553 84.96893852 -138.83801876 79.47235709 -129.23654175 73.99377441 C-119.57466636 68.47997753 -109.93323982 62.93137002 -100.30126953 57.36547852 C-93.67076283 53.53558843 -87.02818123 49.72783936 -80.375 45.9375 C-71.98632096 41.15576062 -63.63973971 36.30442834 -55.30566406 31.42822266 C-46.6771686 26.38316877 -38.01111848 21.40482035 -29.34301758 16.42822266 C-21.89460828 12.13557335 -14.52805669 7.72756501 -7.25244141 3.14770508 C-2.20714926 0 -2.20714926 0 0 0 Z " fill="#36C5F6" transform="translate(946,314)"/>
<path d="M0 0 C0.66 0 1.32 0 2 0 C2 35.31 2 70.62 2 107 C1.67 107 1.34 107 1 107 C0.9845388 105.11865105 0.9845388 105.11865105 0.96876526 103.19929504 C0.87104134 91.38373927 0.76830812 79.56823627 0.66066074 67.75276661 C0.60547849 61.67821365 0.55206593 55.60365584 0.50268555 49.52905273 C0.45497281 43.66758231 0.40262739 37.80616994 0.34705925 31.94476891 C0.32666703 29.70767346 0.30794881 27.47056211 0.29092598 25.23343849 C0.2668127 22.10193762 0.23676745 18.97054596 0.20532227 15.83911133 C0.1995668 14.91266312 0.19381134 13.9862149 0.18788147 13.0316925 C0.14027544 8.86528313 -0.10914147 5.08554233 -1 1 C-0.67 0.67 -0.34 0.34 0 0 Z " fill="#202431" transform="translate(661,437)"/>
<path d="M0 0 C2.1212844 3.86587738 2.24480213 6.70152255 2.23046875 11.13671875 C2.23001053 11.81676468 2.22955231 12.49681061 2.2290802 13.19746399 C2.22606848 14.6288122 2.21821459 16.06015745 2.20581055 17.49145508 C2.18747595 19.69038388 2.18530153 21.88889312 2.18554688 24.08789062 C2.14753687 34.85246313 2.14753687 34.85246313 1 36 C0.84379445 37.41327947 0.74943827 38.8335459 0.68359375 40.25390625 C0.64169922 41.10791016 0.59980469 41.96191406 0.55664062 42.84179688 C0.51732422 43.73962891 0.47800781 44.63746094 0.4375 45.5625 C0.39431641 46.46419922 0.35113281 47.36589844 0.30664062 48.29492188 C0.20021858 50.52978485 0.09820012 52.76476308 0 55 C-0.33 55 -0.66 55 -1 55 C-1.02487172 48.77441696 -1.04294084 42.54886339 -1.05493164 36.32324219 C-1.05993486 34.20897924 -1.06673951 32.09471971 -1.07543945 29.98046875 C-1.08768183 26.92707472 -1.09326858 23.87372675 -1.09765625 20.8203125 C-1.10281754 19.88760529 -1.10797882 18.95489807 -1.11329651 17.993927 C-1.11380464 11.9380375 -0.71646734 6.01312644 0 0 Z " fill="#6FFBFB" transform="translate(939,359)"/>
<path d="M0 0 C0.33 0 0.66 0 1 0 C1.33 15.84 1.66 31.68 2 48 C6.3093986 47.2817669 9.16324035 46.69268808 13 45 C13 45.66 13 46.32 13 47 C11.07058137 48.28627909 9.07960033 49.48111347 7.0625 50.625 C5.96035156 51.25664063 4.85820313 51.88828125 3.72265625 52.5390625 C1 54 1 54 0 54 C0 36.18 0 18.36 0 0 Z " fill="#40414E" transform="translate(861,479)"/>
<path d="M0 0 C0.66 0 1.32 0 2 0 C2 12.21 2 24.42 2 37 C1.67 37 1.34 37 1 37 C0.97494385 36.08710205 0.9498877 35.1742041 0.92407227 34.23364258 C0.82868393 30.83232369 0.72946598 27.43116061 0.62768555 24.0300293 C0.58449295 22.56067232 0.54280744 21.0912702 0.50268555 19.62182617 C0.44460118 17.50425645 0.38101902 15.38691063 0.31640625 13.26953125 C0.27974854 11.99698486 0.24309082 10.72443848 0.20532227 9.41333008 C0.08297468 6.06794338 0.08297468 6.06794338 -0.58227539 3.1081543 C-0.72012451 2.41246338 -0.85797363 1.71677246 -1 1 C-0.67 0.67 -0.34 0.34 0 0 Z " fill="#202432" transform="translate(661,437)"/>
<path d="M0 0 C0.33 0 0.66 0 1 0 C1 3.63 1 7.26 1 11 C4.9492568 10.44894091 8.34920174 9.61064629 12 8 C12 8.66 12 9.32 12 10 C9.8828125 11.5078125 9.8828125 11.5078125 7.125 13.125 C6.22007812 13.66382813 5.31515625 14.20265625 4.3828125 14.7578125 C2 16 2 16 0 16 C0 10.72 0 5.44 0 0 Z " fill="#898B96" transform="translate(862,516)"/>
<path d="M0 0 C-1.21236328 0.70576172 -1.21236328 0.70576172 -2.44921875 1.42578125 C-3.51785156 2.04839844 -4.58648438 2.67101562 -5.6875 3.3125 C-6.74324219 3.92738281 -7.79898438 4.54226563 -8.88671875 5.17578125 C-10.83226986 6.31577168 -12.76782975 7.4731974 -14.6875 8.65625 C-17.36378716 10.21138984 -20.04424725 11.10640033 -23 12 C-19.51810822 8.04537096 -15.47816134 5.72552942 -10.9375 3.1875 C-10.21755859 2.76791016 -9.49761719 2.34832031 -8.75585938 1.91601562 C-8.06169922 1.52478516 -7.36753906 1.13355469 -6.65234375 0.73046875 C-5.70862915 0.19522583 -5.70862915 0.19522583 -4.74584961 -0.35083008 C-3 -1 -3 -1 0 0 Z " fill="#57DDE1" transform="translate(846,374)"/>
<path d="M0 0 C0 0.66 0 1.32 0 2 C-3.96 3.98 -7.92 5.96 -12 8 C-9.23726078 2.47452156 -6.27282628 0 0 0 Z " fill="#67FBFB" transform="translate(936,327)"/>
<path d="M0 0 C0.66 0.33 1.32 0.66 2 1 C-3.34539835 5.50062149 -8.23467327 8.21470545 -15 10 C-12.0761589 6.81980317 -9.16598831 4.74648691 -5.375 2.6875 C-4.41335938 2.15511719 -3.45171875 1.62273437 -2.4609375 1.07421875 C-1.64882813 0.71972656 -0.83671875 0.36523438 0 0 Z " fill="#62E3E6" transform="translate(933,321)"/>
<path d="M0 0 C-3.55639236 2.30119506 -6.94718288 3.77472971 -11 5 C-4.83050847 -1.61016949 -4.83050847 -1.61016949 0 0 Z " fill="#52E4EA" transform="translate(834,381)"/>
<path d="M0 0 C0.66 0 1.32 0 2 0 C2 3.96 2 7.92 2 12 C1.67 12 1.34 12 1 12 C0.63896464 10.18885568 0.28634496 8.37603177 -0.0625 6.5625 C-0.25972656 5.55316406 -0.45695313 4.54382813 -0.66015625 3.50390625 C-0.77230469 2.67761719 -0.88445313 1.85132813 -1 1 C-0.67 0.67 -0.34 0.34 0 0 Z " fill="#484B57" transform="translate(661,437)"/>
<path d="M0 0 C0 0.66 0 1.32 0 2 C-0.804375 2.12375 -1.60875 2.2475 -2.4375 2.375 C-3.7059375 2.684375 -3.7059375 2.684375 -5 3 C-5.33 3.66 -5.66 4.32 -6 5 C-6.99 4.67 -7.98 4.34 -9 4 C-3.375 0 -3.375 0 0 0 Z " fill="#6CE7E7" transform="translate(913,334)"/>
</svg>
